<?xml version="1.0" encoding="utf-8"?>
<!-- Generator: Adobe Illustrator 18.0.0, SVG Export Plug-In . SVG Version: 6.00 Build 0)  -->
<!DOCTYPE svg PUBLIC "-//W3C//DTD SVG 1.1//EN" "http://www.w3.org/Graphics/SVG/1.1/DTD/svg11.dtd">
<svg version="1.1" id="CLUB_xA0_图像_1_" xmlns="http://www.w3.org/2000/svg" xmlns:xlink="http://www.w3.org/1999/xlink" x="0px"
	 y="0px" viewBox="0 0 595.3 841.9" enable-background="new 0 0 595.3 841.9" xml:space="preserve">
<g>
	<path d="M100.3,319.7v17.7c0.4-0.1,0.7-0.2,1-0.4c0.3-0.2,0.6-0.4,0.9-0.6c2.3-1.3,4.5-2.5,6.8-3.8c2.3-1.3,4.5-2.6,6.6-3.8v7.3
		c-2.5,1.6-5,3.1-7.6,4.6c-2.6,1.4-5.1,2.9-7.8,4.4v17.7c-1,0.6-2,1.3-3.2,1.9c-1.1,0.6-2.2,1.2-3.3,1.9v-50.2V316
		c1.1,0.6,2.2,1.3,3.3,1.9C98.2,318.5,99.3,319.1,100.3,319.7z"/>
	<path d="M161.9,341.4c-3.7-2.1-7.3-4.3-10.9-6.4c-3.6-2.1-7.3-4.2-11-6.3c-1.8,1.1-3.6,2.1-5.4,3.2c-1.8,1-3.6,2.1-5.5,3.3
		c-1.6,0.9-3.2,1.8-4.7,2.7c-1.5,0.9-3.1,1.8-4.7,2.7c-0.2,0.1-0.5,0.2-0.8,0.4c-0.3,0.2-0.5,0.4-0.6,0.4v1.4c0,3.8,0,7.6,0.1,11.4
		c0,3.8,0,7.9-0.1,12.2c3.7,2.1,7.4,4.3,11,6.4c3.6,2.1,7.3,4.2,11,6.3c3.4-2,6.8-3.9,10.2-5.9c3.4-1.9,6.8-3.9,10.1-5.9
		c0.3-0.1,0.6-0.2,0.9-0.4c0.3-0.2,0.5-0.3,0.6-0.5v-0.7c0-4.1,0-8.2-0.1-12.2C161.8,349.4,161.8,345.4,161.9,341.4z M155.5,362.6
		c0,0.1-0.1,0.2-0.3,0.3c-0.2,0.1-0.4,0.3-0.6,0.4c-0.2,0.1-0.4,0.2-0.6,0.3c-0.2,0.1-0.3,0.2-0.4,0.2c-2.3,1.3-4.5,2.7-6.7,3.9
		c-2.2,1.3-4.5,2.6-6.8,3.9c-2.5-1.5-5-3-7.6-4.5c-2.6-1.5-5.1-3-7.8-4.5v-17.7c2.6-1.5,5.2-3,7.8-4.5c2.6-1.5,5.1-3,7.8-4.4
		c2.5,1.4,5.1,2.9,7.7,4.4c2.6,1.5,5.2,3,7.7,4.5v15.4c0,0.4,0,0.8,0.1,1.2C155.6,362.1,155.5,362.4,155.5,362.6z"/>
	<path d="M173.4,319v17.7c2.7-1.4,5.3-2.9,7.8-4.4c2.5-1.5,5-2.9,7.5-4.4c2.8,1.5,5.5,3,8.3,4.6c2.8,1.5,5.5,3.1,8.3,4.7l5.4,3.2
		v25.2c-0.9,0.6-1.8,1.1-2.7,1.6c-0.9,0.5-1.8,1.1-2.8,1.6c-2.7,1.5-5.4,3.1-8.1,4.6c-2.7,1.6-5.4,3.2-8.1,4.8
		c-3.7-2.1-7.4-4.3-11-6.3c-3.6-2.1-7.3-4.2-11-6.3v-25.9c0-4.1,0-8.3,0.1-12.4c0-4.1,0-8.1-0.1-11.9v-0.2
		C169.3,316.5,171.5,317.7,173.4,319z M189,335.2c-2.6,1.4-5.2,2.9-7.8,4.4c-2.6,1.5-5.1,3-7.8,4.5v17.7c2.6,1.5,5.2,3,7.8,4.5
		c2.6,1.5,5.1,3,7.6,4.5c2.6-1.4,5.2-2.9,7.8-4.4c2.6-1.5,5.1-3,7.8-4.5v-17.7c-2.6-1.5-5.2-3-7.7-4.5
		C194.2,338.2,191.6,336.7,189,335.2z"/>
	<path d="M260.4,341.4c-3.7-2.1-7.3-4.3-10.9-6.4c-3.6-2.1-7.3-4.2-11-6.3c-1.8,1.1-3.6,2.1-5.4,3.2c-1.8,1-3.6,2.1-5.5,3.3
		c-1.6,0.9-3.2,1.8-4.7,2.7c-1.5,0.9-3.1,1.8-4.7,2.7c-0.2,0.1-0.5,0.2-0.8,0.4c-0.3,0.2-0.5,0.4-0.6,0.4v1.4c0,3.8,0,7.6,0.1,11.4
		c0,3.8,0,7.9-0.1,12.2c3.7,2.1,7.4,4.3,11,6.4c3.6,2.1,7.3,4.2,11,6.3c3.4-2,6.8-3.9,10.2-5.9c3.4-1.9,6.8-3.9,10.1-5.9
		c0.3-0.1,0.6-0.2,0.9-0.4c0.3-0.2,0.5-0.3,0.6-0.5v-0.7c0-4.1,0-8.2-0.1-12.2C260.3,349.4,260.3,345.4,260.4,341.4z M254,362.6
		c0,0.1-0.1,0.2-0.3,0.3c-0.2,0.1-0.4,0.3-0.6,0.4c-0.2,0.1-0.4,0.2-0.6,0.3c-0.2,0.1-0.3,0.2-0.4,0.2c-2.3,1.3-4.5,2.7-6.7,3.9
		c-2.2,1.3-4.5,2.6-6.8,3.9c-2.5-1.5-5-3-7.6-4.5c-2.6-1.5-5.1-3-7.8-4.5v-17.7c2.6-1.5,5.2-3,7.8-4.5c2.6-1.5,5.1-3,7.8-4.4
		c2.5,1.4,5.1,2.9,7.7,4.4c2.6,1.5,5.2,3,7.7,4.5v15.4c0,0.4,0,0.8,0.1,1.2C254.1,362.1,254.1,362.4,254,362.6z"/>
	<path d="M272,345.5c-1.1-0.6-2.2-1.3-3.3-1.9c-1.1-0.6-2.2-1.2-3.2-1.9c3.6-2.1,7.2-4.1,10.7-6.3c3.6-2.1,7.2-4.2,10.9-6.3
		c0.1,1.3,0.1,2.5,0.1,3.8c0,1.2-0.1,2.4-0.1,3.6c-0.6,0.4-1.3,0.8-1.9,1.2c-0.6,0.4-1.2,0.7-1.9,1.1c-1.9,1.1-3.8,2.2-5.7,3.2
		C275.8,343.3,273.9,344.4,272,345.5z M287.3,304.1c0-0.1,0.1-0.2,0.2-0.2c1,0.7,2,1.4,3.1,1.9c1.1,0.6,2.1,1.2,3.2,1.8
		c0.1,3.5,0.1,6.9,0.1,10.3c0,3.4-0.1,6.7-0.1,10.1v21.1v27c-1.1,0.6-2.1,1.2-3.2,1.8c-1.1,0.6-2.1,1.2-3.2,1.8v-11.4v-20.4
		L287.3,304.1L287.3,304.1z M293.9,333c2.5,1.4,5,2.9,7.5,4.4c2.5,1.5,5,2.9,7.5,4.4c-1,0.6-2,1.3-3.1,1.9c-1.1,0.6-2.1,1.2-3.1,1.9
		c-1.5-0.8-3-1.6-4.4-2.5c-1.4-0.9-2.9-1.7-4.3-2.5L293.9,333L293.9,333z"/>
	<path d="M346.5,327.7c3.7,2.1,7.3,4.1,11,6.3c3.6,2.1,7.2,4.2,10.8,6.3c-1.1,0.7-2.1,1.4-3.2,1.9c-1,0.6-2.1,1.2-3.3,1.8
		c-2.5-1.4-5-2.9-7.6-4.4c-2.6-1.5-5.1-2.9-7.6-4.4c-2.6,1.4-5.2,2.9-7.8,4.4c-2.6,1.5-5.1,3-7.8,4.5v17.7c0.6,0.4,1.3,0.7,2,1.1
		c0.7,0.4,1.3,0.7,2,1.1c1.9,1.1,3.8,2.2,5.7,3.4s3.8,2.3,5.7,3.4c2.6-1.5,5.2-3,7.8-4.5c2.6-1.5,5.1-3,7.6-4.5l6.4,3.8
		c-3.6,2.1-7.2,4.3-10.8,6.3c-3.6,2.1-7.2,4.2-10.8,6.3c-3.8-2.1-7.5-4.3-11-6.3c-3.6-2.1-7.2-4.2-10.9-6.3v-13.4v-11.8
		c3.6-2.1,7.2-4.3,10.9-6.3C339.2,332,342.9,329.9,346.5,327.7z"/>
	<rect x="264.5" y="379.5" fill="none" width="205.2" height="71"/>
	<g enable-background="new    ">
		<path d="M286.3,382.1c3.7,2.1,7.3,4.1,11,6.3c3.6,2.1,7.2,4.2,10.8,6.3c-1.1,0.7-2.1,1.4-3.2,1.9c-1,0.6-2.1,1.2-3.3,1.8
			c-2.5-1.4-5-2.9-7.6-4.4s-5.1-2.9-7.6-4.4c-2.6,1.4-5.2,2.9-7.8,4.4c-2.6,1.5-5.1,3-7.8,4.5v17.7c0.6,0.4,1.3,0.7,2,1.1
			c0.7,0.4,1.3,0.7,2,1.1c1.9,1.1,3.8,2.2,5.7,3.4c1.9,1.2,3.8,2.3,5.7,3.4c2.6-1.5,5.2-3,7.8-4.5s5.1-3,7.6-4.5l6.4,3.8
			c-3.6,2.1-7.2,4.3-10.8,6.3c-3.6,2.1-7.2,4.2-10.8,6.3c-3.8-2.1-7.5-4.3-11-6.3c-3.6-2.1-7.2-4.2-10.9-6.3v-13.4v-11.8
			c3.6-2.1,7.2-4.3,10.9-6.3C279,386.3,282.7,384.2,286.3,382.1z"/>
		<path d="M313.4,345.2c1.1,0.6,2.1,1.2,3.2,1.8c1.1,0.6,2.1,1.2,3.2,1.9v68l-6.4,3.8v-71.1V345.2z"/>
		<path d="M333.4,398.7v15.4c0,0.4,0,0.7-0.1,1.1c0,0.4,0,0.7,0.1,1c0,0.1,0.1,0.2,0.3,0.3c0.2,0.1,0.4,0.3,0.6,0.4
			c0.2,0.1,0.4,0.2,0.6,0.3c0.2,0.1,0.3,0.2,0.4,0.2c2.3,1.3,4.5,2.5,6.8,3.8s4.5,2.6,6.8,3.8c2.6-1.5,5.2-3,7.7-4.5
			c2.5-1.5,5.1-3,7.7-4.5v-15.4c0-0.4,0-0.8-0.1-1.2c0-0.4,0-0.8,0.1-1c0.1-0.2,0.3-0.4,0.7-0.5c0.4-0.2,0.7-0.3,1-0.5l4.8-2.7v23.4
			v1.6c-0.1,0.1-0.3,0.2-0.5,0.4c-0.3,0.2-0.5,0.3-0.7,0.5c-3.3,1.9-6.5,3.7-9.6,5.5s-6.3,3.6-9.6,5.6c-0.2,0.1-0.4,0.2-0.7,0.4
			c-0.3,0.2-0.5,0.3-0.5,0.3c-0.2,0-0.4-0.1-0.7-0.3c-0.3-0.2-0.5-0.3-0.7-0.4c-3.4-2.1-6.8-4.1-10.3-6c-3.4-2-6.9-3.9-10.3-5.9v-25
			c1.1,0.6,2.2,1.1,3.3,1.8C331.3,397.3,332.4,398,333.4,398.7z"/>
		<path d="M382.2,373.3V391c2.7-1.4,5.3-2.9,7.8-4.4c2.5-1.5,5-2.9,7.5-4.4c2.8,1.5,5.5,3,8.3,4.6c2.8,1.5,5.5,3.1,8.3,4.7l5.4,3.2
			V420c-0.9,0.6-1.8,1.1-2.7,1.6c-0.9,0.5-1.8,1.1-2.8,1.6c-2.7,1.5-5.4,3.1-8.1,4.6c-2.7,1.6-5.4,3.2-8.1,4.8
			c-3.7-2.1-7.4-4.3-11-6.3c-3.6-2.1-7.3-4.2-11-6.3v-25.9c0-4.1,0-8.3,0.1-12.4c0-4.1,0-8.1-0.1-11.9v-0.2
			C378.1,370.9,380.3,372.1,382.2,373.3z M397.8,389.6c-2.6,1.4-5.2,2.9-7.8,4.4c-2.6,1.5-5.1,3-7.8,4.5v17.7c2.6,1.5,5.2,3,7.8,4.5
			s5.1,3,7.6,4.5c2.6-1.4,5.2-2.9,7.8-4.4s5.1-3,7.8-4.5v-17.7c-2.6-1.5-5.2-3-7.7-4.5C403,392.6,400.4,391.1,397.8,389.6z"/>
	</g>
</g>
</svg>
